#!OML:ASF H:\Terrain\Patient Classification 1\Terrain2\Thursday\justin.ASF
:FULLY-SPECIFIED
:DEGREES
3387
root -10.2107 17.8651 -0.412728 -105.602 269.023 -258.606
lowerback 7.84329 -0.249668 -2.00866
upperback 2.96076 -0.526133 2.83453
thorax -1.28958 -0.327395 4.11139
lowerneck -14.7525 1.95526 -7.22873
upperneck 34.3971 3.74683 0.717753
head 14.0677 0.365725 2.05113
rclavicle 2.48481e-016 8.74653e-015
rhumerus -36.3132 -3.39032 -77.5955
rradius 49.6965
rwrist -16.5214
rhand -23.6438 10.9814
rfingers 7.12502
rthumb 2.8214 -18.9797
lclavicle 2.48481e-016 8.74653e-015
lhumerus -37.4297 -1.88788 85.1077
lradius 44.1131
lwrist 4.48701
lhand -14.2824 18.3355
lfingers 7.12502
lthumb 11.8568 47.9799
rfemur -33.5125 -21.2948 16.6793
rtibia 90.7866
rfoot -15.395 6.79597
rtoes -6.93493
lfemur 1.40025 2.97661 -20.5854
ltibia 14.2991
lfoot -3.24253 -9.55473
ltoes 28.1187
3388
root -10.2296 17.8326 -0.428413 -115.758 268.645 -248.317
lowerback 7.77762 -0.244039 -1.77351
upperback 2.95933 -0.500745 3.02066
thorax -1.2573 -0.316345 4.16903
lowerneck -14.856 1.87989 -7.52996
upperneck 34.5225 3.70067 0.830455
head 14.1419 0.315715 2.14572
rclavicle -2.13694e-014 4.05521e-014
rhumerus -36.1806 -3.45662 -77.301
rradius 49.816
rwrist -16.3987
rhand -23.2955 11.327
rfingers 7.12502
rthumb 3.15778 -18.6294
lclavicle -2.13694e-014 4.05521e-014
lhumerus -37.0357 -1.38769 85.0738
lradius 44.4234
lwrist 4.82036
lhand -13.9516 18.1848
lfingers 7.12502
lthumb 12.1757 47.8104
rfemur -32.9391 -20.3036 17.1724
rtibia 87.9683
rfoot -14.916 6.23682
rtoes -7.8659
lfemur 0.794525 2.77327 -20.2867
ltibia 15.3544
lfoot -4.21258 -9.61785
ltoes 29.4451
3389
root -10.2423 17.7821 -0.448561 -129.194 268.428 -234.675
lowerback 7.78227 -0.22735 -1.76199
upperback 2.85963 -0.472243 3.0015
thorax -1.36567 -0.296963 4.14089
lowerneck -14.8362 1.8218 -7.34192
upperneck 34.5791 3.64555 0.573226
head 14.1798 0.277757 2.00102
rclavicle -3.62782e-015 1.98785e-014
rhumerus -36.2428 -3.72319 -77.123
rradius 49.8441
rwrist -16.0781
rhand -22.5796 11.2551
rfingers 7.12502
rthumb 3.84904 -18.6899
lclavicle -3.62782e-015 1.98785e-014
lhumerus -36.736 -0.869147 84.7452
lradius 44.6635
lwrist 4.72985
lhand -15.7841 20.7306
lfingers 7.12502
lthumb 10.4084 50.453
rfemur -32.4258 -19.6103 17.2909
rtibia 85.1461
rfoot -14.6339 6.54588
rtoes -8.43902
lfemur 0.0576605 2.93987 -20.3103
ltibia 16.5015
lfoot -5.29977 -9.89067
ltoes 26.6503
3390
root -10.2559 17.7363 -0.475407 -139.813 268.123 -224.026
lowerback 7.99006 -0.219009 -1.76094
upperback 2.77319 -0.458711 2.88415
thorax -1.5724 -0.283445 4.02018
lowerneck -14.9113 1.7351 -6.92373
upperneck 34.8221 3.49245 0.285699
head 14.3324 0.21146 1.79186
rclavicle 7.85199e-015 -7.95139e-015
rhumerus -36.37 -4.0708 -77.1834
rradius 49.773
rwrist -15.631
rhand -22.2809 11.0477
rfingers 7.12502
rthumb 4.13751 -18.8919
lclavicle 7.85199e-015 -7.95139e-015
lhumerus -36.5673 -0.430009 84.3096
lradius 44.9432
lwrist 5.01148
lhand -15.8495 20.9023
lfingers 7.12502
lthumb 10.3453 50.6278
rfemur -31.4782 -18.768 17.3179
rtibia 82.1806
rfoot -14.356 7.01026
rtoes -5.75012
lfemur -0.565804 3.02251 -20.2679
ltibia 17.7568
lfoot -6.18306 -10.1635
ltoes 25.824
3391
root -10.275 17.7179 -0.508668 -142.426 267.858 -221.491
lowerback 8.20763 -0.122542 -1.68291
upperback 2.7598 -0.325925 2.78276
thorax -1.71897 -0.213634 3.86062
lowerneck -15.0423 1.62971 -6.78348
upperneck 35.1598 3.24611 0.43803
head 14.5252 0.126829 1.79665
rclavicle 6.16232e-015 -5.96354e-015
rhumerus -36.4049 -4.71466 -77.3169
rradius 49.5665
rwrist -15.5183
rhand -22.8911 10.7326
rfingers 7.12502
rthumb 3.5483 -19.2177
lclavicle 6.16232e-015 -5.96354e-015
lhumerus -36.4406 -0.462119 84.1039
lradius 45.3624
lwrist 6.59898
lhand -18.3192 21.3267
lfingers 7.12502
lthumb 7.96228 51.1568
rfemur -30.2312 -17.5437 17.5099
rtibia 79.0704
rfoot -14.2863 6.82412
rtoes -4.4409
lfemur -1.07627 2.40692 -20.0421
ltibia 19.0058
lfoot -6.69874 -9.93364
ltoes 30.2869
3392
root -10.2919 17.7065 -0.536807 -144.478 267.576 -219.371
lowerback 8.16671 -0.0731214 -1.6756
upperback 2.81564 -0.261062 2.82228
thorax -1.64351 -0.183952 3.89072
lowerneck -14.9769 1.59822 -6.90753
upperneck 35.1164 3.17966 0.597193
head 14.486 0.109503 1.87207
rclavicle 1.68967e-015 -1.98785e-015
rhumerus -36.1366 -5.07564 -77.3022
rradius 49.097
rwrist -15.539
rhand -23.2299 10.5865
rfingers 7.12502
rthumb 3.22104 -19.369
lclavicle 1.68967e-015 -1.98785e-015
lhumerus -36.15 -0.132895 84.0027
lradius 45.7997
lwrist 7.7635
lhand -20.3711 21.3846
lfingers 7.12502
lthumb 5.98155 51.2801
rfemur -29.1221 -16.2681 17.715
rtibia 75.932
rfoot -14.2114 6.73607
rtoes -4.37511
lfemur -1.75478 1.83578 -19.8081
ltibia 20.2309
lfoot -7.29211 -9.99818
ltoes 31.1279
